<?xml version="1.0" standalone="no"?>
<!DOCTYPE svg PUBLIC "-//W3C//DTD SVG 20010904//EN"
 "http://www.w3.org/TR/2001/REC-SVG-20010904/DTD/svg10.dtd">
<svg version="1.0" xmlns="http://www.w3.org/2000/svg"
 width="1892.000000pt" height="399.000000pt" viewBox="0 0 1892.000000 399.000000"
 preserveAspectRatio="xMidYMid meet">

<g transform="translate(0.000000,399.000000) scale(0.100000,-0.100000)"
fill="#000000" stroke="none">
<path d="M292 3418 l3 -363 270 -5 270 -5 5 -1435 5 -1435 457 -3 458 -2 2
1437 3 1438 270 5 270 5 3 363 2 362 -1010 0 -1010 0 2 -362z"/>
<path d="M2455 3768 c-3 -7 -4 -818 -3 -1803 l3 -1790 458 -3 c251 -1 458 -1
459 0 2 2 5 343 8 758 l5 755 170 0 170 0 5 -755 5 -755 457 -3 458 -2 5 22
c3 13 4 824 3 1803 l-3 1780 -460 0 -460 0 -3 -652 -2 -653 -175 0 -175 0 0
639 c0 352 -3 646 -6 655 -5 14 -55 16 -460 16 -355 0 -456 -3 -459 -12z"/>
<path d="M4895 3768 c-3 -7 -4 -818 -3 -1803 l3 -1790 808 -3 807 -2 0 365 0
365 -345 0 -345 0 0 395 0 395 298 2 297 3 0 345 0 345 -297 3 -298 2 0 330 0
330 318 2 317 3 3 363 2 362 -780 0 c-615 0 -782 -3 -785 -12z"/>
<path d="M6672 1978 l3 -1803 390 0 390 0 5 1335 c3 734 8 1324 12 1310 4 -14
22 -122 38 -240 31 -213 121 -834 179 -1230 68 -464 94 -648 130 -896 21 -144
41 -266 45 -273 5 -8 89 -11 291 -11 l285 0 5 23 c2 12 18 119 35 237 17 118
49 337 71 485 22 149 47 320 55 380 8 61 19 137 25 170 5 33 16 107 24 165 20
145 55 388 110 760 65 444 65 443 70 449 3 2 5 -592 5 -1320 0 -728 4 -1330 8
-1337 7 -9 92 -12 393 -10 l384 3 0 1800 0 1800 -620 0 -620 0 -11 -85 c-6
-47 -17 -134 -23 -195 -6 -60 -22 -216 -36 -345 -23 -219 -92 -893 -115 -1130
-6 -58 -15 -138 -20 -178 -6 -40 -10 -92 -10 -115 0 -35 -2 -39 -14 -27 -8 10
-23 101 -40 255 -14 132 -40 357 -56 500 -17 143 -41 357 -55 475 -66 582 -86
759 -93 800 l-7 45 -618 3 -617 2 2 -1802z"/>
<path d="M10235 3768 c-4 -10 -84 -637 -135 -1058 -5 -41 -28 -219 -50 -395
-73 -573 -180 -1424 -215 -1710 -19 -154 -39 -310 -45 -347 -5 -37 -10 -72
-10 -78 0 -7 140 -9 463 -8 l462 3 7 90 c4 50 14 188 22 308 9 120 18 222 21
228 4 5 79 9 170 9 163 0 165 0 169 -22 2 -13 12 -140 21 -283 8 -143 19 -276
23 -295 l7 -35 458 -3 457 -2 0 22 c0 21 -47 378 -71 533 -5 39 -24 169 -40
290 -68 504 -80 590 -109 800 -17 121 -39 285 -50 365 -10 80 -33 244 -50 365
-42 305 -64 463 -99 730 -27 200 -39 282 -67 468 l-6 37 -664 0 c-523 0 -666
-3 -669 -12z m695 -758 c5 -63 21 -232 35 -375 14 -143 30 -305 35 -360 40
-441 62 -672 70 -739 5 -43 7 -82 4 -87 -3 -5 -74 -9 -159 -9 -165 0 -165 0
-159 55 5 45 22 228 39 425 8 96 33 378 56 625 22 248 43 483 46 523 3 40 10
69 14 65 5 -5 13 -60 19 -123z"/>
<path d="M12150 3757 c0 -13 16 -93 35 -178 20 -85 72 -314 116 -509 44 -195
92 -404 105 -465 14 -60 31 -137 39 -170 7 -33 25 -113 40 -179 l28 -118 -26
-132 c-14 -72 -49 -241 -77 -376 -59 -283 -153 -737 -212 -1025 -22 -110 -51
-249 -63 -310 -13 -60 -20 -113 -16 -118 4 -4 212 -6 461 -5 l455 3 37 260
c20 143 46 325 57 405 12 80 42 294 67 475 24 182 48 339 53 350 8 21 17 -8
40 -140 10 -57 29 -162 51 -285 6 -30 33 -183 60 -340 66 -379 80 -457 90
-510 5 -25 14 -76 20 -115 7 -38 15 -77 20 -85 6 -13 67 -15 440 -18 239 -1
438 2 442 6 5 5 -4 61 -20 128 -16 65 -44 180 -61 254 -18 74 -41 169 -52 210
-10 41 -44 179 -75 305 -64 269 -89 370 -183 755 -109 446 -104 367 -34 646
169 665 294 1155 307 1209 28 106 73 95 -393 95 -382 0 -410 -1 -415 -17 -3
-10 -23 -115 -46 -233 -22 -118 -52 -271 -65 -340 -13 -69 -40 -210 -60 -315
-53 -277 -57 -294 -66 -270 -5 11 -29 157 -54 325 -25 168 -52 346 -60 395 -8
50 -26 167 -40 260 -14 94 -27 176 -30 183 -3 9 -105 12 -460 12 l-455 0 0
-23z"/>
<path d="M14555 3768 c-3 -7 -4 -818 -3 -1803 l3 -1790 445 0 445 0 3 731 2
731 288 6 c250 5 297 8 367 27 295 79 463 289 505 630 13 110 13 736 0 837
-45 331 -240 539 -581 620 -66 15 -152 17 -772 21 -567 2 -698 1 -702 -10z
m1179 -613 c50 -24 84 -71 96 -135 13 -68 13 -551 0 -619 -22 -118 -77 -150
-257 -151 l-123 0 0 459 c0 358 3 461 13 465 6 3 62 4 123 2 79 -2 121 -8 148
-21z"/>
<path d="M16981 3758 c-5 -13 -24 -138 -41 -278 -17 -140 -42 -345 -56 -455
-13 -110 -29 -234 -34 -275 -5 -41 -21 -165 -35 -275 -14 -110 -30 -234 -35
-275 -17 -144 -80 -646 -90 -715 -9 -62 -32 -248 -60 -475 -5 -41 -30 -236
-55 -433 -25 -196 -45 -369 -45 -382 l0 -25 457 2 458 3 7 40 c7 39 22 240 36
475 l7 115 170 0 170 0 8 -75 c4 -41 15 -183 25 -315 l17 -240 463 -3 c254 -1
462 0 462 2 0 2 -13 98 -29 213 -16 114 -46 330 -65 478 -20 149 -43 315 -52
370 -8 55 -21 150 -29 210 -7 61 -20 160 -29 220 -31 217 -86 614 -115 840
-17 127 -35 259 -41 295 -12 80 -18 129 -75 545 -25 182 -49 353 -53 380 l-7
50 -663 3 -662 2 -9 -22z m699 -798 c16 -176 57 -616 75 -800 9 -91 20 -208
25 -260 5 -52 16 -171 25 -264 8 -94 13 -176 11 -183 -8 -20 -304 -19 -312 2
-3 7 15 247 41 532 25 285 57 642 70 793 14 151 28 295 31 320 l7 45 8 -35 c4
-19 13 -87 19 -150z"/>
</g>
</svg>
